<svg id="Layer_1" data-name="Layer 1" xmlns="http://www.w3.org/2000/svg" viewBox="0 0 48 48"><defs><style>.cls-1{fill:#006ba6;}.cls-2{fill:#2d3663;}.cls-3{fill:none;}</style></defs><title>Clinic logo</title><rect class="cls-1" x="19" y="33" width="10" height="12"/><path class="cls-2" d="M40,48H8a3,3,0,0,1-3-3V13a3,3,0,0,1,3-3h7v4H9V44H39V14H33V10h7a3,3,0,0,1,3,3V45A3,3,0,0,1,40,48Z"/><rect class="cls-1" x="19" y="9" width="10" height="4"/><rect class="cls-1" x="22" y="6" width="4" height="10"/><path class="cls-2" d="M32,22H16a3,3,0,0,1-3-3V3a3,3,0,0,1,3-3H32a3,3,0,0,1,3,3V19A3,3,0,0,1,32,22ZM17,18H31V4H17Z"/><rect class="cls-3" width="48" height="48"/></svg>